<svg xmlns="http://www.w3.org/2000/svg" viewBox="0 0 36 36"><path fill="#FFCC4D" d="M36 18c0 9.941-8.059 18-18 18-9.94 0-18-8.059-18-18C0 8.06 8.06 0 18 0c9.941 0 18 8.06 18 18"/><path fill="#F5F8FA" d="m35.747 15.116-7.761 3.527C26.233 18.068 22.389 17 18 17s-8.233 1.068-9.986 1.643L.253 15.115H.252C.152 15.734.085 16.362.05 17l.001.023L7 20.182v6.091l-5.453-.992.002.003h-.001c.341.769.739 1.504 1.18 2.211l4.692.854C8.973 29.619 12 34 18 34s9.027-4.381 10.578-5.65l4.693-.854c.441-.708.84-1.444 1.181-2.213l.001-.002-5.453.992v-6.091l6.948-3.158.001-.023h.001a17.957 17.957 0 0 0-.203-1.885z"/><ellipse fill="#664500" cx="12" cy="12.5" rx="2.5" ry="3.5"/><ellipse fill="#664500" cx="24" cy="12.5" rx="2.5" ry="3.5"/></svg>
